<svg xmlns="http://www.w3.org/2000/svg" viewBox="0 0 64 80" x="0px" y="0px"><title>Drop down</title><g data-name="Drop down"><path d="M41.29,28.44a2,2,0,0,1-.58,1.41l-5.89,5.89-1.1,1.1a2.45,2.45,0,0,1-3.47,0l-1.09-1.1-5.8-5.8a2.08,2.08,0,0,1-.19-2.81,2,2,0,0,1,1.52-.69A2,2,0,0,1,26.1,27L32,32.91l5.8-5.8a2.09,2.09,0,0,1,2.82-.18A2,2,0,0,1,41.29,28.44ZM59,32A27,27,0,1,0,32,59,27,27,0,0,0,59,32Zm-4,0A23,23,0,1,1,32,9,23,23,0,0,1,55,32Z"/></g><text x="0" y="79" fill="#000000" font-size="5px" font-weight="bold" font-family="'Helvetica Neue', Helvetica, Arial-Unicode, Arial, Sans-serif">Created by Dio Sugiharto</text><text x="0" y="84" fill="#000000" font-size="5px" font-weight="bold" font-family="'Helvetica Neue', Helvetica, Arial-Unicode, Arial, Sans-serif">from the Noun Project</text></svg>